# xmcd
#
# Track frame offsets:
# 150
# 19609
# 36411
# 56266
# 76500
# 94842
# 112017
# 134479
# 152993
# 171873
# 190102
# 208357
# 229146
# 248533
# 269100
# 288660
#
# Disc length: 4075 seconds
#
#
# Revision: 2
# Processed by: cddbd v1.4PL0 Copyright (c) Steve Scherf et al.
# Submitted via: FreeRIP 2.40 
#
DISCID=e50fe910
DTITLE=黎明 - 你愛不愛精選2
DYEAR=1998
DGENRE=Pop
TTITLE0=一生最愛就是你
TTITLE1=微風之前(離別之後)
TTITLE2=沒名字的歌無名字的妳
TTITLE3=送你
TTITLE4=孤單的人孤單一個
TTITLE5=陽光
TTITLE6=願你今夜別離去
TTITLE7=Oh夜
TTITLE8=我來自北京
TTITLE9=我會像你一樣傻
TTITLE10=如困這是情
TTITLE11=我的感覺
TTITLE12=但願不只是朋友
TTITLE13=親近你
TTITLE14=人在黎明
TTITLE15=相逢在兩中
EXTD=
EXTT0=
EXTT1=
EXTT2=
EXTT3=
EXTT4=
EXTT5=
EXTT6=
EXTT7=
EXTT8=
EXTT9=
EXTT10=
EXTT11=
EXTT12=
EXTT13=
EXTT14=
EXTT15=
PLAYORDER=
